<svg xmlns="http://www.w3.org/2000/svg" viewBox="0 0 512 512">
<rect width="512" height="512" rx="80" fill="#0f2318"/>
<g transform="translate(256,200)">
<path d="M-120,60 Q-80,-80 0,-100 Q80,-80 120,60" fill="none" stroke="#2d7a4f" stroke-width="8"/>
<path d="M-90,60 Q-55,-55 0,-70 Q55,-55 90,60" fill="none" stroke="#3d9962" stroke-width="5"/>
<line x1="-120" y1="60" x2="120" y2="60" stroke="#2d7a4f" stroke-width="8"/>
<line x1="-95" y1="60" x2="-95" y2="20" stroke="#3d9962" stroke-width="6"/>
<line x1="-60" y1="60" x2="-60" y2="-15" stroke="#3d9962" stroke-width="6"/>
<line x1="0" y1="60" x2="0" y2="-35" stroke="#52c07a" stroke-width="6"/>
<line x1="60" y1="60" x2="60" y2="-15" stroke="#3d9962" stroke-width="6"/>
<line x1="95" y1="60" x2="95" y2="20" stroke="#3d9962" stroke-width="6"/>
<circle cx="-95" cy="15" r="10" fill="#52c07a"/>
<circle cx="-60" cy="-20" r="10" fill="#52c07a"/>
<circle cx="0" cy="-40" r="14" fill="#7de0a0"/>
<circle cx="60" cy="-20" r="10" fill="#52c07a"/>
<circle cx="95" cy="15" r="10" fill="#52c07a"/>
</g>
<text x="256" y="370" text-anchor="middle" font-family="Georgia,serif" font-size="60" font-weight="700" letter-spacing="8" fill="#ffffff">AGRISMES</text>
<text x="256" y="420" text-anchor="middle" font-family="Georgia,serif" font-size="28" letter-spacing="6" fill="#52c07a">TRADE INTELLIGENCE</text>
</svg>